<?xml version="1.0" standalone="no"?>
<!DOCTYPE svg PUBLIC "-//W3C//DTD SVG 20010904//EN"
 "http://www.w3.org/TR/2001/REC-SVG-20010904/DTD/svg10.dtd">
<svg version="1.0" xmlns="http://www.w3.org/2000/svg"
 width="200.000000pt" height="200.000000pt" viewBox="0 0 200.000000 200.000000"
 preserveAspectRatio="xMidYMid meet">
<metadata>
Created by potrace 1.16, written by Peter Selinger 2001-2019
</metadata>
<g transform="translate(0.000000,200.000000) scale(0.100000,-0.100000)"
fill="#000000" stroke="none">
<path d="M185 646 c-43 -19 -66 -49 -72 -93 -7 -53 26 -91 112 -127 50 -22 67
-34 72 -54 4 -19 1 -30 -17 -44 -27 -22 -59 -23 -107 -3 -46 20 -48 19 -61
-10 -16 -34 -18 -31 33 -50 31 -12 63 -16 106 -13 54 4 66 8 90 36 22 25 29
42 29 75 0 54 -29 84 -117 122 -34 15 -65 35 -68 45 -8 25 5 50 30 60 21 8 81
0 103 -14 12 -7 32 23 32 47 0 9 -17 19 -44 26 -57 14 -84 13 -121 -3z"/>
<path d="M636 650 c-181 -55 -202 -302 -31 -381 49 -23 151 -25 200 -5 39 17
39 15 26 50 -10 24 -10 24 -58 10 -94 -29 -181 7 -204 86 -16 53 -4 102 33
139 44 43 108 51 194 26 15 -5 23 0 32 20 7 14 12 28 12 30 0 2 -23 11 -52 20
-56 16 -107 18 -152 5z"/>
<path d="M1105 631 c-22 -43 -175 -372 -175 -377 0 -2 16 -4 36 -4 32 0 37 4
51 40 l16 40 89 0 90 0 15 -40 c14 -36 20 -40 50 -40 18 0 33 5 33 11 0 13
-169 378 -181 393 -4 4 -15 -6 -24 -23z"/>
<path d="M1539 647 c-93 -35 -143 -103 -143 -197 -1 -119 89 -200 221 -200 56
0 133 20 133 34 0 3 -5 16 -11 29 -11 24 -12 24 -58 10 -66 -20 -124 -9 -169
31 -30 28 -36 40 -39 87 -7 99 57 157 162 146 27 -3 60 -8 71 -12 18 -5 23 -1
32 23 10 29 9 31 -21 42 -53 18 -139 22 -178 7z"/>
</g>
</svg>
